Coordinates
version=1
nRows=8
nColumns=40
inDegrees=yes

Units are S.I. units (second, meters, Newtons, ...)
Angles are in degrees.

endheader
time	pelvis_tilt	pelvis_list	pelvis_rotation	pelvis_tx	pelvis_ty	pelvis_tz	hip_flexion_r	hip_adduction_r	hip_rotation_r	knee_angle_r	knee_angle_r_beta	ankle_angle_r	subtalar_angle_r	mtp_angle_r	hip_flexion_l	hip_adduction_l	hip_rotation_l	knee_angle_l	knee_angle_l_beta	ankle_angle_l	subtalar_angle_l	mtp_angle_l	lumbar_extension	lumbar_bending	lumbar_rotation	arm_flex_r	arm_add_r	arm_rot_r	elbow_flex_r	pro_sup_r	wrist_flex_r	wrist_dev_r	arm_flex_l	arm_add_l	arm_rot_l	elbow_flex_l	pro_sup_l	wrist_flex_l	wrist_dev_l
     11.23000000	     -2.63778356	     -3.71383734	      0.84001685	      1.05317353	      0.93199455	      0.45517398	     17.11622209	     -1.10211704	     -9.23431600	     19.11297402	     19.11297402	      6.97343179	      0.22954939	     -0.53269192	      1.42452544	     -8.55293959	    -12.81430438	     23.28564621	     23.28564621	     18.88562114	     -0.02658613	     -2.95134618	     -8.27472798	      1.93873683	      0.20830957	      4.28046871	    -18.65439643	     -8.01380341	     66.55132895	     44.70751552	      0.00000000	      0.00000000	      3.95949017	    -16.10346079	     -9.42148717	     52.54596858	     46.82807848	      0.00000000	      0.00000000
     11.24314286	     -2.56799672	     -3.84885450	      1.01757003	      1.05358154	      0.93234777	      0.45855606	     16.54947390	     -0.75723076	     -9.55455221	     18.98689758	     18.98689758	      7.33645768	      0.44554355	     -0.63759858	      2.25209612	     -9.25176818	    -12.16605476	     25.53597825	     25.53597825	     18.44018829	     -0.92189899	     -3.58697420	     -8.24592609	      2.03020426	      0.25336072	      5.67474744	    -18.86080770	     -8.13273719	     67.83927087	     44.68174104	      0.00000000	      0.00000000	      3.30181619	    -15.99546003	     -9.56796407	     51.96286504	     46.82804736	      0.00000000	      0.00000000
     11.25628571	     -2.60806208	     -3.95207308	      1.22266205	      1.05371234	      0.93243156	      0.46184950	     16.09827167	     -0.47228990	     -9.96156653	     18.83227635	     18.83227635	      7.66473809	      0.76674205	     -0.78916128	      3.49987382	     -9.92850638	    -11.31902094	     28.23402050	     28.23402050	     17.64750798	     -2.09463048	     -4.67912225	     -8.11511069	      2.11889773	      0.15292883	      7.01851548	    -19.06454290	     -8.05549503	     69.81204911	     44.62830249	      0.00000000	      0.00000000	      2.51089119	    -15.87047730	     -9.85651265	     51.20341947	     46.83742370	      0.00000000	      0.00000000
     11.26942857	     -2.57837320	     -3.98052902	      1.40715120	      1.05372834	      0.93248962	      0.46504834	     15.59320122	     -0.29270817	    -10.42742404	     18.71682862	     18.71682862	      8.00316574	      1.31741961	     -1.24056788	      4.74827085	    -10.41118445	    -10.17399797	     30.86728299	     30.86728299	     15.38652132	     -4.37031924	     -8.42822184	     -8.18212446	      2.12871327	      0.30055758	      7.75826877	    -19.93196275	     -7.13877464	     73.59749510	     44.51954316	      0.00000000	      0.00000000	      2.17011518	    -15.40342873	    -11.02576067	     50.09330276	     46.92271757	      0.00000000	      0.00000000
     11.28257143	     -2.56399408	     -4.12715685	      1.65011682	      1.05350382	      0.93247800	      0.46823707	     15.08330871	      0.04222001	    -10.85340741	     18.51476012	     18.51476012	      8.27865686	      1.61431677	     -1.42813870	      6.46161955	    -11.14083087	     -9.10362721	     34.32297802	     34.32297802	     13.96155050	     -5.88085379	     -9.71509299	     -8.14950690	      2.25056001	      0.31330472	      9.39208277	    -20.07282246	     -7.32063763	     74.97233965	     44.50190126	      0.00000000	      0.00000000	      1.52797415	    -15.24266805	    -11.02692067	     49.34890250	     46.90609057	      0.00000000	      0.00000000
     11.29571429	     -2.51536203	     -4.35764585	      1.94114304	      1.05309165	      0.93234412	      0.47123655	     14.55368055	      0.44618828	    -11.31164142	     18.32190573	     18.32190573	      8.63396761	      1.94666393	     -1.64628840	      8.38641338	    -11.89934226	     -7.80994396	     38.08002602	     38.08002602	     12.34104288	     -7.49406686	    -10.68122685	     -8.20509450	      2.49745589	      0.40629451	     11.03368368	    -20.38638146	     -7.39776927	     76.44519337	     44.47226077	      0.00000000	      0.00000000	      0.95782136	    -14.96993059	    -10.98514352	     48.66349598	     46.88756152	      0.00000000	      0.00000000
     11.30885714	     -2.59711274	     -4.43974744	      2.25305390	      1.05233812	      0.93194498	      0.47394223	     14.24531772	      0.63157339	    -11.91866694	     18.22847090	     18.22847090	      8.85857907	      2.33268175	     -2.01906283	     10.63721290	    -12.30131447	     -6.25758601	     41.94218329	     41.94218329	      9.99173690	     -9.95579133	    -12.04642893	     -8.11846465	      2.59605817	      0.25198417	     12.64946316	    -20.68183321	     -7.03885717	     78.89167711	     44.40590106	      0.00000000	      0.00000000	      0.42901170	    -14.82999687	    -11.02814077	     47.49369194	     46.87111034	      0.00000000	      0.00000000
     11.32200000	     -2.51034368	     -4.66772966	      2.56295111	      1.05152980	      0.93178243	      0.47658008	     13.73574614	      1.02044735	    -12.26447553	     18.07894866	     18.07894866	      9.19140279	      2.62201522	     -2.29179046	     12.73862450	    -12.86410379	     -4.82609194	     45.72877358	     45.72877358	      7.93431578	    -11.46332396	    -12.49640955	     -8.33415826	      2.87739940	      0.55015647	     14.28476859	    -21.17068602	     -7.00497210	     80.36330840	     44.37612910	      0.00000000	      0.00000000	      0.05284715	    -14.46287792	    -10.96220816	     46.74307287	     46.85081206	      0.00000000	      0.00000000
